%TF.GenerationSoftware,Altium Limited,Altium Designer,18.1.7 (191)*%
G04 Layer_Color=32896*
%FSLAX25Y25*%
%MOIN*%
%TF.FileFunction,Legend,Bot*%
%TF.Part,Single*%
G01*
G75*
%TA.AperFunction,NonConductor*%
%ADD18C,0.00800*%
%ADD19C,0.00700*%
D18*
X36338Y52099D02*
X34348D01*
X35434Y50652D01*
X34891D01*
X34529Y50471D01*
X34348Y50290D01*
X34167Y49747D01*
Y49385D01*
X34348Y48843D01*
X34710Y48481D01*
X35253Y48300D01*
X35795D01*
X36338Y48481D01*
X36519Y48662D01*
X36700Y49024D01*
X33317Y52099D02*
X31870Y48300D01*
X30422Y52099D02*
X31870Y48300D01*
X29572Y52099D02*
X27582D01*
X28667Y50652D01*
X28125D01*
X27763Y50471D01*
X27582Y50290D01*
X27401Y49747D01*
Y49385D01*
X27582Y48843D01*
X27944Y48481D01*
X28486Y48300D01*
X29029D01*
X29572Y48481D01*
X29753Y48662D01*
X29934Y49024D01*
X33986Y10695D02*
X34167Y11056D01*
X34529Y11418D01*
X34891Y11599D01*
X35614D01*
X35976Y11418D01*
X36338Y11056D01*
X36519Y10695D01*
X36700Y10152D01*
Y9247D01*
X36519Y8705D01*
X36338Y8343D01*
X35976Y7981D01*
X35614Y7800D01*
X34891D01*
X34529Y7981D01*
X34167Y8343D01*
X33986Y8705D01*
Y9247D01*
X34891D02*
X33986D01*
X33118Y11599D02*
Y7800D01*
Y11599D02*
X30585Y7800D01*
Y11599D02*
Y7800D01*
X29536Y11599D02*
Y7800D01*
Y11599D02*
X28269D01*
X27727Y11418D01*
X27365Y11056D01*
X27184Y10695D01*
X27003Y10152D01*
Y9247D01*
X27184Y8705D01*
X27365Y8343D01*
X27727Y7981D01*
X28269Y7800D01*
X29536D01*
D19*
X35800Y58366D02*
Y54866D01*
Y58366D02*
X34300D01*
X33800Y58199D01*
X33634Y58032D01*
X33467Y57699D01*
Y57366D01*
X33634Y57033D01*
X33800Y56866D01*
X34300Y56699D01*
X35800D01*
X34634D02*
X33467Y54866D01*
X30684Y57199D02*
Y54866D01*
Y56699D02*
X31018Y57033D01*
X31351Y57199D01*
X31851D01*
X32184Y57033D01*
X32517Y56699D01*
X32684Y56200D01*
Y55866D01*
X32517Y55366D01*
X32184Y55033D01*
X31851Y54866D01*
X31351D01*
X31018Y55033D01*
X30684Y55366D01*
X27918Y56699D02*
X28085Y57033D01*
X28585Y57199D01*
X29085D01*
X29585Y57033D01*
X29751Y56699D01*
X29585Y56366D01*
X29251Y56200D01*
X28418Y56033D01*
X28085Y55866D01*
X27918Y55533D01*
Y55366D01*
X28085Y55033D01*
X28585Y54866D01*
X29085D01*
X29585Y55033D01*
X29751Y55366D01*
X27185Y57199D02*
Y53700D01*
Y56699D02*
X26852Y57033D01*
X26519Y57199D01*
X26019D01*
X25686Y57033D01*
X25352Y56699D01*
X25186Y56200D01*
Y55866D01*
X25352Y55366D01*
X25686Y55033D01*
X26019Y54866D01*
X26519D01*
X26852Y55033D01*
X27185Y55366D01*
X24436Y56533D02*
X22936D01*
X22436Y56699D01*
X22270Y56866D01*
X22103Y57199D01*
Y57699D01*
X22270Y58032D01*
X22436Y58199D01*
X22936Y58366D01*
X24436D01*
Y54866D01*
X20987Y58366D02*
X20820Y58199D01*
X20653Y58366D01*
X20820Y58532D01*
X20987Y58366D01*
X20820Y57199D02*
Y54866D01*
X20037Y56366D02*
X17037D01*
X14838Y58366D02*
Y54866D01*
X16004Y58366D02*
X13671D01*
X10922Y57866D02*
X11255Y58199D01*
X11755Y58366D01*
X12422D01*
X12922Y58199D01*
X13255Y57866D01*
Y57533D01*
X13088Y57199D01*
X12922Y57033D01*
X12588Y56866D01*
X11588Y56533D01*
X11255Y56366D01*
X11089Y56200D01*
X10922Y55866D01*
Y55366D01*
X11255Y55033D01*
X11755Y54866D01*
X12422D01*
X12922Y55033D01*
X13255Y55366D01*
X9139Y58366D02*
X9472Y58199D01*
X9806Y57866D01*
X9972Y57533D01*
X10139Y57033D01*
Y56200D01*
X9972Y55700D01*
X9806Y55366D01*
X9472Y55033D01*
X9139Y54866D01*
X8472D01*
X8139Y55033D01*
X7806Y55366D01*
X7639Y55700D01*
X7473Y56200D01*
Y57033D01*
X7639Y57533D01*
X7806Y57866D01*
X8139Y58199D01*
X8472Y58366D01*
X9139D01*
X6656Y56533D02*
X5157D01*
X4657Y56699D01*
X4490Y56866D01*
X4323Y57199D01*
Y57699D01*
X4490Y58032D01*
X4657Y58199D01*
X5157Y58366D01*
X6656D01*
Y54866D01*
%TF.MD5,f3d8f9d1b83e9ae36278c939d6f81ad5*%
M02*
