%TF.GenerationSoftware,Altium Limited,Altium Designer,18.1.7 (191)*%
G04 Layer_Physical_Order=1*
G04 Layer_Color=255*
%FSLAX25Y25*%
%MOIN*%
%TF.FileFunction,Copper,L1,Top,Signal*%
%TF.Part,Single*%
G01*
G75*
%TA.AperFunction,SMDPad,CuDef*%
G04:AMPARAMS|DCode=10|XSize=35mil|YSize=50mil|CornerRadius=4.38mil|HoleSize=0mil|Usage=FLASHONLY|Rotation=270.000|XOffset=0mil|YOffset=0mil|HoleType=Round|Shape=RoundedRectangle|*
%AMROUNDEDRECTD10*
21,1,0.03500,0.04125,0,0,270.0*
21,1,0.02625,0.05000,0,0,270.0*
1,1,0.00875,-0.02063,-0.01313*
1,1,0.00875,-0.02063,0.01313*
1,1,0.00875,0.02063,0.01313*
1,1,0.00875,0.02063,-0.01313*
%
%ADD10ROUNDEDRECTD10*%
%TA.AperFunction,ConnectorPad*%
%ADD11R,0.05315X0.07480*%
%TA.AperFunction,Conductor*%
%ADD12C,0.01000*%
%TA.AperFunction,ComponentPad*%
%ADD13R,0.05906X0.05906*%
%ADD14C,0.05906*%
%ADD15C,0.06496*%
%ADD16R,0.06496X0.06496*%
G36*
X7331Y2462D02*
X7134Y2652D01*
X6777Y2953D01*
X6617Y3064D01*
X6470Y3149D01*
X6335Y3208D01*
X6212Y3241D01*
X6101Y3247D01*
X6002Y3227D01*
X5916Y3181D01*
X7531Y4371D01*
X7466Y4304D01*
X7432Y4220D01*
X7428Y4120D01*
X7454Y4003D01*
X7511Y3870D01*
X7598Y3720D01*
X7715Y3554D01*
X7863Y3372D01*
X8250Y2957D01*
X7331Y2462D01*
D02*
G37*
G36*
X13750Y10957D02*
X13884Y10827D01*
X14110Y10631D01*
X14202Y10565D01*
X14280Y10521D01*
X14344Y10499D01*
X14393Y10498D01*
X14429Y10519D01*
X14450Y10561D01*
X14457Y10626D01*
Y8129D01*
X14450Y8270D01*
X14429Y8412D01*
X14393Y8553D01*
X14344Y8695D01*
X14280Y8836D01*
X14202Y8977D01*
X14110Y9119D01*
X14004Y9260D01*
X13884Y9402D01*
X13750Y9543D01*
Y10957D01*
D02*
G37*
G36*
X41391Y9127D02*
X43470Y7047D01*
X43046Y7044D01*
X42285Y6993D01*
X41949Y6944D01*
X41642Y6881D01*
X41363Y6802D01*
X41115Y6708D01*
X40895Y6599D01*
X40704Y6475D01*
X40543Y6336D01*
X39836Y7043D01*
X39975Y7204D01*
X40099Y7395D01*
X40208Y7615D01*
X40302Y7863D01*
X40380Y8142D01*
X40444Y8449D01*
X40488Y8752D01*
X40242Y8936D01*
X39980Y9108D01*
X39728Y9249D01*
X39485Y9359D01*
X39253Y9437D01*
X39031Y9484D01*
X38818Y9500D01*
Y10500D01*
X39031Y10516D01*
X39253Y10563D01*
X39485Y10641D01*
X39728Y10751D01*
X39980Y10892D01*
X40242Y11064D01*
X40515Y11268D01*
X41089Y11769D01*
X41391Y12067D01*
Y9127D01*
D02*
G37*
G36*
X10294Y25999D02*
X10121Y26147D01*
X9914Y26278D01*
X9674Y26394D01*
X9399Y26493D01*
X9089Y26576D01*
X8746Y26644D01*
X8369Y26695D01*
X7512Y26749D01*
X7033Y26752D01*
X10248Y29967D01*
X10251Y29488D01*
X10305Y28631D01*
X10356Y28254D01*
X10424Y27911D01*
X10507Y27601D01*
X10606Y27326D01*
X10722Y27086D01*
X10853Y26879D01*
X11001Y26706D01*
X10294Y25999D01*
D02*
G37*
G36*
X11001Y43294D02*
X10853Y43121D01*
X10722Y42914D01*
X10606Y42674D01*
X10507Y42399D01*
X10424Y42090D01*
X10356Y41746D01*
X10305Y41369D01*
X10251Y40512D01*
X10248Y40033D01*
X7033Y43248D01*
X7512Y43251D01*
X8369Y43305D01*
X8746Y43356D01*
X9089Y43424D01*
X9399Y43507D01*
X9674Y43606D01*
X9914Y43722D01*
X10121Y43853D01*
X10294Y44001D01*
X11001Y43294D01*
D02*
G37*
G36*
X1949Y46156D02*
X2069Y46281D01*
X2265Y46515D01*
X2342Y46626D01*
X2405Y46731D01*
X2453Y46832D01*
X2487Y46928D01*
X2507Y47019D01*
X2512Y47106D01*
X2504Y47188D01*
X4668Y46766D01*
X4549Y46779D01*
X4425Y46773D01*
X4296Y46749D01*
X4162Y46705D01*
X4024Y46643D01*
X3880Y46561D01*
X3731Y46461D01*
X3577Y46342D01*
X3418Y46204D01*
X3254Y46047D01*
X1949Y46156D01*
D02*
G37*
G36*
X7746Y53047D02*
X7529Y53257D01*
X7145Y53585D01*
X6978Y53703D01*
X6829Y53791D01*
X6696Y53847D01*
X6579Y53873D01*
X6480Y53868D01*
X6398Y53832D01*
X6332Y53766D01*
X7484Y55418D01*
X7440Y55330D01*
X7422Y55230D01*
X7429Y55119D01*
X7462Y54995D01*
X7521Y54860D01*
X7606Y54712D01*
X7717Y54553D01*
X7853Y54382D01*
X8203Y54004D01*
X7746Y53047D01*
D02*
G37*
D10*
X5000Y55500D02*
D03*
Y48500D02*
D03*
D11*
X4898Y6898D02*
D03*
X17102D02*
D03*
D12*
X11500Y44500D02*
Y50000D01*
X6000Y55500D02*
X11500Y50000D01*
X5000Y55500D02*
X6000D01*
X7000Y40000D02*
X11500Y44500D01*
X27000Y10000D02*
X43500D01*
X7000Y30000D02*
X27000Y10000D01*
X8843Y1657D02*
X35157D01*
X4898Y5602D02*
X8843Y1657D01*
X4898Y5602D02*
Y6898D01*
X35157Y1657D02*
X43500Y10000D01*
X17102Y6000D02*
Y6898D01*
X11000Y13000D02*
X17102Y6898D01*
X4550Y13000D02*
X11000D01*
X1550Y16000D02*
X4550Y13000D01*
X1550Y16000D02*
Y45050D01*
X5000Y48500D01*
D13*
X43500Y50000D02*
D03*
D14*
Y40000D02*
D03*
Y30000D02*
D03*
Y20000D02*
D03*
Y10000D02*
D03*
D15*
X7000Y40000D02*
D03*
Y30000D02*
D03*
D16*
Y20000D02*
D03*
%TF.MD5,8375bb3e3ea6c92236553321d8df81c6*%
M02*
