G04*
G04 #@! TF.GenerationSoftware,Altium Limited,Altium Designer,18.1.7 (191)*
G04*
G04 Layer_Color=65535*
%FSAX25Y25*%
%MOIN*%
G70*
G01*
G75*
%ADD10C,0.00984*%
%ADD11C,0.00787*%
%ADD12C,0.00500*%
%ADD13C,0.00800*%
%ADD14C,0.01000*%
D10*
X0007492Y0014587D02*
G03*
X0007492Y0014587I-0000492J0000000D01*
G01*
D11*
X0038500Y0005000D02*
X0048500D01*
X0038500D02*
Y0055000D01*
X0048500Y0005000D02*
Y0055000D01*
X0038500D02*
X0048500D01*
X0009031Y0010244D02*
X0012968D01*
X0009031Y0003551D02*
X0012968D01*
X0001488Y0020157D02*
Y0039843D01*
X0002177D01*
X0001488Y0020157D02*
X0002177D01*
X0020386Y0022126D02*
Y0037874D01*
X0012512D02*
X0020386D01*
X0012512Y0022126D02*
X0020386D01*
X0011823Y0039843D02*
X0012512D01*
X0011823Y0020157D02*
X0012512D01*
Y0037874D02*
Y0039843D01*
X0012512Y0020158D02*
Y0022126D01*
D12*
X0001500Y0045700D02*
X0008500D01*
X0001500D02*
Y0058250D01*
X0008500D01*
Y0045700D02*
Y0058250D01*
X0006000Y0052750D02*
X0007000D01*
X0005000D02*
X0006000D01*
X0004000D02*
X0005000D01*
X0003000D02*
X0004000D01*
X0003000D02*
X0004000Y0052000D01*
X0005000Y0051200D01*
X0007000Y0052750D01*
X0004750Y0051500D02*
X0007000Y0052750D01*
X0004750Y0051500D02*
X0006000Y0052750D01*
X0004500Y0051700D02*
X0006000Y0052750D01*
X0004500Y0051700D02*
X0005000Y0052750D01*
X0004000Y0052000D02*
X0005000Y0052750D01*
X0004000Y0052000D02*
Y0052750D01*
D13*
X0029249Y0022442D02*
Y0018643D01*
X0031131Y0022442D02*
X0030769Y0022261D01*
X0030407Y0021899D01*
X0030226Y0021537D01*
X0030045Y0020994D01*
Y0020090D01*
X0030226Y0019547D01*
X0030407Y0019185D01*
X0030769Y0018823D01*
X0031131Y0018643D01*
X0031855D01*
X0032216Y0018823D01*
X0032578Y0019185D01*
X0032759Y0019547D01*
X0032940Y0020090D01*
Y0020994D01*
X0032759Y0021537D01*
X0032578Y0021899D01*
X0032216Y0022261D01*
X0031855Y0022442D01*
X0031131D01*
X0035636D02*
X0033827Y0019909D01*
X0036540D01*
X0035636Y0022442D02*
Y0018643D01*
X0027662Y0052099D02*
X0029652D01*
X0028566Y0050652D01*
X0029109D01*
X0029471Y0050471D01*
X0029652Y0050290D01*
X0029833Y0049747D01*
Y0049385D01*
X0029652Y0048843D01*
X0029290Y0048481D01*
X0028747Y0048300D01*
X0028205D01*
X0027662Y0048481D01*
X0027481Y0048662D01*
X0027300Y0049024D01*
X0030683Y0052099D02*
X0032130Y0048300D01*
X0033578Y0052099D02*
X0032130Y0048300D01*
X0034428Y0052099D02*
X0036418D01*
X0035333Y0050652D01*
X0035875D01*
X0036237Y0050471D01*
X0036418Y0050290D01*
X0036599Y0049747D01*
Y0049385D01*
X0036418Y0048843D01*
X0036056Y0048481D01*
X0035513Y0048300D01*
X0034971D01*
X0034428Y0048481D01*
X0034247Y0048662D01*
X0034066Y0049024D01*
X0029416Y0032442D02*
Y0028642D01*
X0031297Y0032442D02*
X0030936Y0032261D01*
X0030574Y0031899D01*
X0030393Y0031537D01*
X0030212Y0030994D01*
Y0030090D01*
X0030393Y0029547D01*
X0030574Y0029185D01*
X0030936Y0028823D01*
X0031297Y0028642D01*
X0032021D01*
X0032383Y0028823D01*
X0032745Y0029185D01*
X0032926Y0029547D01*
X0033107Y0030090D01*
Y0030994D01*
X0032926Y0031537D01*
X0032745Y0031899D01*
X0032383Y0032261D01*
X0032021Y0032442D01*
X0031297D01*
X0034355D02*
X0036345D01*
X0035260Y0030994D01*
X0035802D01*
X0036164Y0030814D01*
X0036345Y0030633D01*
X0036526Y0030090D01*
Y0029728D01*
X0036345Y0029185D01*
X0035983Y0028823D01*
X0035440Y0028642D01*
X0034898D01*
X0034355Y0028823D01*
X0034174Y0029004D01*
X0033993Y0029366D01*
X0029416Y0042442D02*
Y0038642D01*
X0031297Y0042442D02*
X0030936Y0042261D01*
X0030574Y0041899D01*
X0030393Y0041537D01*
X0030212Y0040994D01*
Y0040090D01*
X0030393Y0039547D01*
X0030574Y0039185D01*
X0030936Y0038823D01*
X0031297Y0038642D01*
X0032021D01*
X0032383Y0038823D01*
X0032745Y0039185D01*
X0032926Y0039547D01*
X0033107Y0040090D01*
Y0040994D01*
X0032926Y0041537D01*
X0032745Y0041899D01*
X0032383Y0042261D01*
X0032021Y0042442D01*
X0031297D01*
X0034174Y0041537D02*
Y0041718D01*
X0034355Y0042080D01*
X0034536Y0042261D01*
X0034898Y0042442D01*
X0035621D01*
X0035983Y0042261D01*
X0036164Y0042080D01*
X0036345Y0041718D01*
Y0041356D01*
X0036164Y0040994D01*
X0035802Y0040452D01*
X0033993Y0038642D01*
X0036526D01*
X0030014Y0010695D02*
X0029833Y0011056D01*
X0029471Y0011418D01*
X0029109Y0011599D01*
X0028385D01*
X0028024Y0011418D01*
X0027662Y0011056D01*
X0027481Y0010695D01*
X0027300Y0010152D01*
Y0009247D01*
X0027481Y0008705D01*
X0027662Y0008343D01*
X0028024Y0007981D01*
X0028385Y0007800D01*
X0029109D01*
X0029471Y0007981D01*
X0029833Y0008343D01*
X0030014Y0008705D01*
Y0009247D01*
X0029109D02*
X0030014D01*
X0030882Y0011599D02*
Y0007800D01*
Y0011599D02*
X0033415Y0007800D01*
Y0011599D02*
Y0007800D01*
X0034464Y0011599D02*
Y0007800D01*
Y0011599D02*
X0035731D01*
X0036273Y0011418D01*
X0036635Y0011056D01*
X0036816Y0010695D01*
X0036997Y0010152D01*
Y0009247D01*
X0036816Y0008705D01*
X0036635Y0008343D01*
X0036273Y0007981D01*
X0035731Y0007800D01*
X0034464D01*
D14*
X0014000Y0048000D02*
X0010501D01*
Y0049749D01*
X0011084Y0050333D01*
X0012251D01*
X0012834Y0049749D01*
Y0048000D01*
X0010501Y0051499D02*
X0014000D01*
X0012834Y0052665D01*
X0014000Y0053831D01*
X0010501D01*
X0014000Y0054998D02*
X0010501D01*
Y0056747D01*
X0011084Y0057330D01*
X0012251D01*
X0012834Y0056747D01*
Y0054998D01*
Y0056164D02*
X0014000Y0057330D01*
X0015501Y0040000D02*
X0018417D01*
X0019000Y0040583D01*
Y0041749D01*
X0018417Y0042333D01*
X0015501D01*
X0019000Y0043499D02*
Y0044665D01*
Y0044082D01*
X0015501D01*
X0016084Y0043499D01*
M02*
