%TF.GenerationSoftware,Altium Limited,Altium Designer,18.1.7 (191)*%
G04 Layer_Color=65535*
%FSLAX25Y25*%
%MOIN*%
%TF.FileFunction,Legend,Top*%
%TF.Part,Single*%
G01*
G75*
%TA.AperFunction,NonConductor*%
%ADD18C,0.00800*%
%ADD25C,0.00984*%
%ADD26C,0.00787*%
%ADD27C,0.00500*%
%ADD28C,0.01000*%
D18*
X29249Y22442D02*
Y18643D01*
X31131Y22442D02*
X30769Y22261D01*
X30407Y21899D01*
X30226Y21537D01*
X30045Y20994D01*
Y20090D01*
X30226Y19547D01*
X30407Y19185D01*
X30769Y18823D01*
X31131Y18643D01*
X31855D01*
X32216Y18823D01*
X32578Y19185D01*
X32759Y19547D01*
X32940Y20090D01*
Y20994D01*
X32759Y21537D01*
X32578Y21899D01*
X32216Y22261D01*
X31855Y22442D01*
X31131D01*
X35636D02*
X33827Y19909D01*
X36540D01*
X35636Y22442D02*
Y18643D01*
X27662Y52099D02*
X29652D01*
X28566Y50652D01*
X29109D01*
X29471Y50471D01*
X29652Y50290D01*
X29833Y49747D01*
Y49385D01*
X29652Y48843D01*
X29290Y48481D01*
X28747Y48300D01*
X28205D01*
X27662Y48481D01*
X27481Y48662D01*
X27300Y49024D01*
X30683Y52099D02*
X32130Y48300D01*
X33578Y52099D02*
X32130Y48300D01*
X34428Y52099D02*
X36418D01*
X35333Y50652D01*
X35875D01*
X36237Y50471D01*
X36418Y50290D01*
X36599Y49747D01*
Y49385D01*
X36418Y48843D01*
X36056Y48481D01*
X35513Y48300D01*
X34971D01*
X34428Y48481D01*
X34247Y48662D01*
X34066Y49024D01*
X29416Y32442D02*
Y28642D01*
X31297Y32442D02*
X30936Y32261D01*
X30574Y31899D01*
X30393Y31537D01*
X30212Y30994D01*
Y30090D01*
X30393Y29547D01*
X30574Y29185D01*
X30936Y28823D01*
X31297Y28642D01*
X32021D01*
X32383Y28823D01*
X32745Y29185D01*
X32926Y29547D01*
X33107Y30090D01*
Y30994D01*
X32926Y31537D01*
X32745Y31899D01*
X32383Y32261D01*
X32021Y32442D01*
X31297D01*
X34355D02*
X36345D01*
X35260Y30994D01*
X35802D01*
X36164Y30814D01*
X36345Y30633D01*
X36526Y30090D01*
Y29728D01*
X36345Y29185D01*
X35983Y28823D01*
X35440Y28642D01*
X34898D01*
X34355Y28823D01*
X34174Y29004D01*
X33993Y29366D01*
X29416Y42442D02*
Y38642D01*
X31297Y42442D02*
X30936Y42261D01*
X30574Y41899D01*
X30393Y41537D01*
X30212Y40994D01*
Y40090D01*
X30393Y39547D01*
X30574Y39185D01*
X30936Y38823D01*
X31297Y38642D01*
X32021D01*
X32383Y38823D01*
X32745Y39185D01*
X32926Y39547D01*
X33107Y40090D01*
Y40994D01*
X32926Y41537D01*
X32745Y41899D01*
X32383Y42261D01*
X32021Y42442D01*
X31297D01*
X34174Y41537D02*
Y41718D01*
X34355Y42080D01*
X34536Y42261D01*
X34898Y42442D01*
X35621D01*
X35983Y42261D01*
X36164Y42080D01*
X36345Y41718D01*
Y41356D01*
X36164Y40994D01*
X35802Y40452D01*
X33993Y38642D01*
X36526D01*
X30014Y10695D02*
X29833Y11056D01*
X29471Y11418D01*
X29109Y11599D01*
X28385D01*
X28024Y11418D01*
X27662Y11056D01*
X27481Y10695D01*
X27300Y10152D01*
Y9247D01*
X27481Y8705D01*
X27662Y8343D01*
X28024Y7981D01*
X28385Y7800D01*
X29109D01*
X29471Y7981D01*
X29833Y8343D01*
X30014Y8705D01*
Y9247D01*
X29109D02*
X30014D01*
X30882Y11599D02*
Y7800D01*
Y11599D02*
X33415Y7800D01*
Y11599D02*
Y7800D01*
X34464Y11599D02*
Y7800D01*
Y11599D02*
X35731D01*
X36273Y11418D01*
X36635Y11056D01*
X36816Y10695D01*
X36997Y10152D01*
Y9247D01*
X36816Y8705D01*
X36635Y8343D01*
X36273Y7981D01*
X35731Y7800D01*
X34464D01*
D25*
X7492Y14587D02*
G03*
X7492Y14587I-492J0D01*
G01*
D26*
X38500Y5000D02*
X48500D01*
X38500D02*
Y55000D01*
X48500Y5000D02*
Y55000D01*
X38500D02*
X48500D01*
X9031Y10244D02*
X12968D01*
X9031Y3551D02*
X12968D01*
X1488Y20157D02*
Y39843D01*
X2177D01*
X1488Y20157D02*
X2177D01*
X20386Y22126D02*
Y37874D01*
X12512D02*
X20386D01*
X12512Y22126D02*
X20386D01*
X11823Y39843D02*
X12512D01*
X11823Y20157D02*
X12512D01*
Y37874D02*
Y39843D01*
X12512Y20158D02*
Y22126D01*
D27*
X1500Y45700D02*
X8500D01*
X1500D02*
Y58250D01*
X8500D01*
Y45700D02*
Y58250D01*
X6000Y52750D02*
X7000D01*
X5000D02*
X6000D01*
X4000D02*
X5000D01*
X3000D02*
X4000D01*
X3000D02*
X4000Y52000D01*
X5000Y51200D01*
X7000Y52750D01*
X4750Y51500D02*
X7000Y52750D01*
X4750Y51500D02*
X6000Y52750D01*
X4500Y51700D02*
X6000Y52750D01*
X4500Y51700D02*
X5000Y52750D01*
X4000Y52000D02*
X5000Y52750D01*
X4000Y52000D02*
Y52750D01*
D28*
X14000Y48000D02*
X10501D01*
Y49749D01*
X11084Y50333D01*
X12251D01*
X12834Y49749D01*
Y48000D01*
X10501Y51499D02*
X14000D01*
X12834Y52665D01*
X14000Y53831D01*
X10501D01*
X14000Y54998D02*
X10501D01*
Y56747D01*
X11084Y57330D01*
X12251D01*
X12834Y56747D01*
Y54998D01*
Y56164D02*
X14000Y57330D01*
X15501Y40000D02*
X18417D01*
X19000Y40583D01*
Y41749D01*
X18417Y42333D01*
X15501D01*
X19000Y43499D02*
Y44665D01*
Y44082D01*
X15501D01*
X16084Y43499D01*
%TF.MD5,75503b5d92f160db918841aca58a5b03*%
M02*
