G04*
G04 #@! TF.GenerationSoftware,Altium Limited,Altium Designer,18.1.7 (191)*
G04*
G04 Layer_Physical_Order=1*
G04 Layer_Color=255*
%FSAX25Y25*%
%MOIN*%
G70*
G01*
G75*
%ADD14C,0.01000*%
G04:AMPARAMS|DCode=15|XSize=35mil|YSize=50mil|CornerRadius=4.38mil|HoleSize=0mil|Usage=FLASHONLY|Rotation=270.000|XOffset=0mil|YOffset=0mil|HoleType=Round|Shape=RoundedRectangle|*
%AMROUNDEDRECTD15*
21,1,0.03500,0.04125,0,0,270.0*
21,1,0.02625,0.05000,0,0,270.0*
1,1,0.00875,-0.02063,-0.01313*
1,1,0.00875,-0.02063,0.01313*
1,1,0.00875,0.02063,0.01313*
1,1,0.00875,0.02063,-0.01313*
%
%ADD15ROUNDEDRECTD15*%
%ADD16R,0.05315X0.07480*%
%ADD23R,0.05906X0.05906*%
%ADD24C,0.05906*%
%ADD25C,0.06496*%
%ADD26R,0.06496X0.06496*%
G36*
X0007331Y0002462D02*
X0007134Y0002652D01*
X0006777Y0002953D01*
X0006617Y0003064D01*
X0006470Y0003149D01*
X0006335Y0003208D01*
X0006212Y0003241D01*
X0006101Y0003247D01*
X0006002Y0003227D01*
X0005916Y0003181D01*
X0007531Y0004371D01*
X0007466Y0004304D01*
X0007432Y0004220D01*
X0007428Y0004120D01*
X0007454Y0004003D01*
X0007511Y0003870D01*
X0007598Y0003720D01*
X0007715Y0003554D01*
X0007863Y0003372D01*
X0008250Y0002957D01*
X0007331Y0002462D01*
D02*
G37*
G36*
X0013750Y0010957D02*
X0013884Y0010827D01*
X0014110Y0010631D01*
X0014202Y0010565D01*
X0014280Y0010521D01*
X0014344Y0010499D01*
X0014393Y0010498D01*
X0014429Y0010519D01*
X0014450Y0010561D01*
X0014457Y0010626D01*
Y0008129D01*
X0014450Y0008270D01*
X0014429Y0008412D01*
X0014393Y0008553D01*
X0014344Y0008695D01*
X0014280Y0008836D01*
X0014202Y0008977D01*
X0014110Y0009119D01*
X0014004Y0009260D01*
X0013884Y0009402D01*
X0013750Y0009543D01*
Y0010957D01*
D02*
G37*
G36*
X0041391Y0009127D02*
X0043470Y0007047D01*
X0043046Y0007044D01*
X0042285Y0006993D01*
X0041949Y0006944D01*
X0041642Y0006881D01*
X0041363Y0006802D01*
X0041115Y0006708D01*
X0040895Y0006599D01*
X0040704Y0006475D01*
X0040543Y0006336D01*
X0039836Y0007043D01*
X0039975Y0007204D01*
X0040099Y0007395D01*
X0040208Y0007615D01*
X0040302Y0007863D01*
X0040380Y0008142D01*
X0040444Y0008449D01*
X0040488Y0008752D01*
X0040242Y0008936D01*
X0039980Y0009108D01*
X0039728Y0009249D01*
X0039485Y0009359D01*
X0039253Y0009437D01*
X0039031Y0009484D01*
X0038818Y0009500D01*
Y0010500D01*
X0039031Y0010516D01*
X0039253Y0010563D01*
X0039485Y0010641D01*
X0039728Y0010751D01*
X0039980Y0010892D01*
X0040242Y0011064D01*
X0040515Y0011268D01*
X0041089Y0011769D01*
X0041391Y0012067D01*
Y0009127D01*
D02*
G37*
G36*
X0010294Y0025999D02*
X0010121Y0026147D01*
X0009914Y0026278D01*
X0009674Y0026394D01*
X0009399Y0026493D01*
X0009089Y0026576D01*
X0008746Y0026644D01*
X0008369Y0026695D01*
X0007512Y0026749D01*
X0007033Y0026752D01*
X0010248Y0029967D01*
X0010251Y0029488D01*
X0010305Y0028631D01*
X0010356Y0028254D01*
X0010424Y0027911D01*
X0010507Y0027601D01*
X0010606Y0027326D01*
X0010722Y0027086D01*
X0010853Y0026879D01*
X0011001Y0026706D01*
X0010294Y0025999D01*
D02*
G37*
G36*
X0011001Y0043294D02*
X0010853Y0043121D01*
X0010722Y0042914D01*
X0010606Y0042674D01*
X0010507Y0042399D01*
X0010424Y0042090D01*
X0010356Y0041746D01*
X0010305Y0041369D01*
X0010251Y0040512D01*
X0010248Y0040033D01*
X0007033Y0043248D01*
X0007512Y0043251D01*
X0008369Y0043305D01*
X0008746Y0043356D01*
X0009089Y0043424D01*
X0009399Y0043507D01*
X0009674Y0043606D01*
X0009914Y0043722D01*
X0010121Y0043853D01*
X0010294Y0044001D01*
X0011001Y0043294D01*
D02*
G37*
G36*
X0001949Y0046156D02*
X0002069Y0046281D01*
X0002265Y0046515D01*
X0002342Y0046626D01*
X0002405Y0046731D01*
X0002453Y0046832D01*
X0002487Y0046928D01*
X0002507Y0047019D01*
X0002512Y0047106D01*
X0002504Y0047188D01*
X0004668Y0046766D01*
X0004549Y0046779D01*
X0004425Y0046773D01*
X0004296Y0046749D01*
X0004162Y0046705D01*
X0004024Y0046643D01*
X0003880Y0046561D01*
X0003731Y0046461D01*
X0003577Y0046342D01*
X0003418Y0046204D01*
X0003254Y0046047D01*
X0001949Y0046156D01*
D02*
G37*
G36*
X0007746Y0053047D02*
X0007529Y0053257D01*
X0007145Y0053585D01*
X0006978Y0053703D01*
X0006829Y0053791D01*
X0006696Y0053847D01*
X0006579Y0053873D01*
X0006480Y0053868D01*
X0006398Y0053832D01*
X0006332Y0053766D01*
X0007484Y0055418D01*
X0007440Y0055330D01*
X0007422Y0055230D01*
X0007429Y0055119D01*
X0007462Y0054995D01*
X0007521Y0054860D01*
X0007606Y0054712D01*
X0007717Y0054553D01*
X0007853Y0054382D01*
X0008203Y0054004D01*
X0007746Y0053047D01*
D02*
G37*
D14*
X0011500Y0044500D02*
Y0050000D01*
X0006000Y0055500D02*
X0011500Y0050000D01*
X0005000Y0055500D02*
X0006000D01*
X0007000Y0040000D02*
X0011500Y0044500D01*
X0027000Y0010000D02*
X0043500D01*
X0007000Y0030000D02*
X0027000Y0010000D01*
X0008843Y0001657D02*
X0035157D01*
X0004898Y0005602D02*
X0008843Y0001657D01*
X0004898Y0005602D02*
Y0006898D01*
X0035157Y0001657D02*
X0043500Y0010000D01*
X0017102Y0006000D02*
Y0006898D01*
X0011000Y0013000D02*
X0017102Y0006898D01*
X0004550Y0013000D02*
X0011000D01*
X0001550Y0016000D02*
X0004550Y0013000D01*
X0001550Y0016000D02*
Y0045050D01*
X0005000Y0048500D01*
D15*
Y0055500D02*
D03*
Y0048500D02*
D03*
D16*
X0004898Y0006898D02*
D03*
X0017102D02*
D03*
D23*
X0043500Y0050000D02*
D03*
D24*
Y0040000D02*
D03*
Y0030000D02*
D03*
Y0020000D02*
D03*
Y0010000D02*
D03*
D25*
X0007000Y0040000D02*
D03*
Y0030000D02*
D03*
D26*
Y0020000D02*
D03*
M02*
