G04*
G04 #@! TF.GenerationSoftware,Altium Limited,Altium Designer,18.1.7 (191)*
G04*
G04 Layer_Physical_Order=2*
G04 Layer_Color=16711680*
%FSAX25Y25*%
%MOIN*%
G70*
G01*
G75*
%ADD14C,0.01000*%
%ADD23R,0.05906X0.05906*%
%ADD24C,0.05906*%
%ADD25C,0.06496*%
%ADD26R,0.06496X0.06496*%
%ADD27R,0.07500X0.05500*%
G36*
X0011236Y0019500D02*
X0011044Y0019495D01*
X0010872Y0019480D01*
X0010720Y0019455D01*
X0010588Y0019420D01*
X0010477Y0019375D01*
X0010386Y0019320D01*
X0010315Y0019255D01*
X0010265Y0019180D01*
X0010234Y0019095D01*
X0010224Y0019000D01*
Y0021000D01*
X0010234Y0020905D01*
X0010265Y0020820D01*
X0010315Y0020745D01*
X0010386Y0020680D01*
X0010477Y0020625D01*
X0010588Y0020580D01*
X0010720Y0020545D01*
X0010872Y0020520D01*
X0011044Y0020505D01*
X0011236Y0020500D01*
Y0019500D01*
D02*
G37*
G36*
X0019262Y0020500D02*
X0019454Y0020505D01*
X0019626Y0020520D01*
X0019778Y0020545D01*
X0019910Y0020580D01*
X0020021Y0020625D01*
X0020112Y0020680D01*
X0020183Y0020745D01*
X0020234Y0020820D01*
X0020264Y0020905D01*
X0020274Y0021000D01*
Y0019000D01*
X0020264Y0019095D01*
X0020234Y0019180D01*
X0020183Y0019255D01*
X0020112Y0019320D01*
X0020021Y0019375D01*
X0019910Y0019420D01*
X0019778Y0019455D01*
X0019626Y0019480D01*
X0019454Y0019495D01*
X0019262Y0019500D01*
Y0020500D01*
D02*
G37*
G36*
X0024500Y0023738D02*
X0024505Y0023546D01*
X0024520Y0023374D01*
X0024545Y0023222D01*
X0024580Y0023090D01*
X0024625Y0022979D01*
X0024680Y0022888D01*
X0024745Y0022817D01*
X0024820Y0022767D01*
X0024905Y0022736D01*
X0025000Y0022726D01*
X0023000D01*
X0023095Y0022736D01*
X0023180Y0022767D01*
X0023255Y0022817D01*
X0023320Y0022888D01*
X0023375Y0022979D01*
X0023420Y0023090D01*
X0023455Y0023222D01*
X0023480Y0023374D01*
X0023495Y0023546D01*
X0023500Y0023738D01*
X0024500D01*
D02*
G37*
G36*
X0011001Y0043294D02*
X0010853Y0043121D01*
X0010722Y0042914D01*
X0010606Y0042674D01*
X0010507Y0042399D01*
X0010424Y0042090D01*
X0010356Y0041746D01*
X0010305Y0041369D01*
X0010251Y0040512D01*
X0010248Y0040033D01*
X0007033Y0043248D01*
X0007512Y0043251D01*
X0008369Y0043305D01*
X0008746Y0043356D01*
X0009089Y0043424D01*
X0009399Y0043507D01*
X0009674Y0043606D01*
X0009914Y0043722D01*
X0010121Y0043853D01*
X0010294Y0044001D01*
X0011001Y0043294D01*
D02*
G37*
G36*
X0024905Y0037252D02*
X0024820Y0037222D01*
X0024745Y0037172D01*
X0024680Y0037102D01*
X0024625Y0037012D01*
X0024580Y0036902D01*
X0024545Y0036772D01*
X0024520Y0036622D01*
X0024505Y0036452D01*
X0024500Y0036262D01*
X0023500D01*
X0023495Y0036452D01*
X0023480Y0036622D01*
X0023455Y0036772D01*
X0023420Y0036902D01*
X0023375Y0037012D01*
X0023320Y0037102D01*
X0023255Y0037172D01*
X0023180Y0037222D01*
X0023095Y0037252D01*
X0023000Y0037262D01*
X0025000D01*
X0024905Y0037252D01*
D02*
G37*
G36*
X0024505Y0033546D02*
X0024520Y0033374D01*
X0024545Y0033222D01*
X0024580Y0033090D01*
X0024625Y0032979D01*
X0024680Y0032888D01*
X0024745Y0032817D01*
X0024820Y0032767D01*
X0024905Y0032736D01*
X0025000Y0032726D01*
X0023000D01*
X0023095Y0032736D01*
X0023180Y0032767D01*
X0023255Y0032817D01*
X0023320Y0032888D01*
X0023375Y0032979D01*
X0023420Y0033090D01*
X0023455Y0033222D01*
X0023480Y0033374D01*
X0023495Y0033546D01*
X0023500Y0033738D01*
X0024500D01*
X0024505Y0033546D01*
D02*
G37*
G36*
X0024905Y0027252D02*
X0024820Y0027222D01*
X0024745Y0027172D01*
X0024680Y0027102D01*
X0024625Y0027012D01*
X0024580Y0026902D01*
X0024545Y0026772D01*
X0024520Y0026622D01*
X0024505Y0026452D01*
X0024500Y0026262D01*
X0023500D01*
X0023495Y0026452D01*
X0023480Y0026622D01*
X0023455Y0026772D01*
X0023420Y0026902D01*
X0023375Y0027012D01*
X0023320Y0027102D01*
X0023255Y0027172D01*
X0023180Y0027222D01*
X0023095Y0027252D01*
X0023000Y0027262D01*
X0025000D01*
X0024905Y0027252D01*
D02*
G37*
G36*
X0037738Y0019500D02*
X0037546Y0019495D01*
X0037374Y0019480D01*
X0037222Y0019455D01*
X0037090Y0019420D01*
X0036979Y0019375D01*
X0036888Y0019320D01*
X0036817Y0019255D01*
X0036766Y0019180D01*
X0036736Y0019095D01*
X0036726Y0019000D01*
Y0021000D01*
X0036736Y0020905D01*
X0036766Y0020820D01*
X0036817Y0020745D01*
X0036888Y0020680D01*
X0036979Y0020625D01*
X0037090Y0020580D01*
X0037222Y0020545D01*
X0037374Y0020520D01*
X0037546Y0020505D01*
X0037738Y0020500D01*
Y0019500D01*
D02*
G37*
G36*
X0038818Y0020500D02*
X0039031Y0020516D01*
X0039253Y0020563D01*
X0039485Y0020641D01*
X0039728Y0020751D01*
X0039980Y0020892D01*
X0040242Y0021064D01*
X0040515Y0021268D01*
X0041089Y0021769D01*
X0041391Y0022067D01*
Y0017933D01*
X0041089Y0018231D01*
X0040515Y0018732D01*
X0040242Y0018936D01*
X0039980Y0019108D01*
X0039728Y0019249D01*
X0039485Y0019359D01*
X0039253Y0019437D01*
X0039031Y0019484D01*
X0038818Y0019500D01*
Y0020500D01*
D02*
G37*
G36*
X0037738Y0029500D02*
X0037546Y0029495D01*
X0037374Y0029480D01*
X0037222Y0029455D01*
X0037090Y0029420D01*
X0036979Y0029375D01*
X0036888Y0029320D01*
X0036817Y0029255D01*
X0036766Y0029180D01*
X0036736Y0029095D01*
X0036726Y0029000D01*
Y0031000D01*
X0036736Y0030905D01*
X0036766Y0030820D01*
X0036817Y0030745D01*
X0036888Y0030680D01*
X0036979Y0030625D01*
X0037090Y0030580D01*
X0037222Y0030545D01*
X0037374Y0030520D01*
X0037546Y0030505D01*
X0037738Y0030500D01*
Y0029500D01*
D02*
G37*
G36*
X0038818Y0030500D02*
X0039031Y0030516D01*
X0039253Y0030563D01*
X0039485Y0030641D01*
X0039728Y0030751D01*
X0039980Y0030892D01*
X0040242Y0031064D01*
X0040515Y0031268D01*
X0041089Y0031769D01*
X0041391Y0032067D01*
Y0027933D01*
X0041089Y0028231D01*
X0040515Y0028732D01*
X0040242Y0028936D01*
X0039980Y0029108D01*
X0039728Y0029249D01*
X0039485Y0029359D01*
X0039253Y0029437D01*
X0039031Y0029484D01*
X0038818Y0029500D01*
Y0030500D01*
D02*
G37*
G36*
X0037738Y0039500D02*
X0037546Y0039495D01*
X0037374Y0039480D01*
X0037222Y0039455D01*
X0037090Y0039420D01*
X0036979Y0039375D01*
X0036888Y0039320D01*
X0036817Y0039255D01*
X0036766Y0039180D01*
X0036736Y0039095D01*
X0036726Y0039000D01*
Y0041000D01*
X0036736Y0040905D01*
X0036766Y0040820D01*
X0036817Y0040745D01*
X0036888Y0040680D01*
X0036979Y0040625D01*
X0037090Y0040580D01*
X0037222Y0040545D01*
X0037374Y0040520D01*
X0037546Y0040505D01*
X0037738Y0040500D01*
Y0039500D01*
D02*
G37*
G36*
X0038818Y0040500D02*
X0039031Y0040516D01*
X0039253Y0040563D01*
X0039485Y0040641D01*
X0039728Y0040751D01*
X0039980Y0040892D01*
X0040242Y0041064D01*
X0040515Y0041268D01*
X0041089Y0041769D01*
X0041391Y0042067D01*
Y0037933D01*
X0041089Y0038231D01*
X0040515Y0038732D01*
X0040242Y0038936D01*
X0039980Y0039108D01*
X0039728Y0039249D01*
X0039485Y0039359D01*
X0039253Y0039437D01*
X0039031Y0039484D01*
X0038818Y0039500D01*
Y0040500D01*
D02*
G37*
G36*
X0039559Y0050500D02*
X0039751Y0050505D01*
X0039924Y0050520D01*
X0040075Y0050545D01*
X0040207Y0050580D01*
X0040318Y0050625D01*
X0040409Y0050680D01*
X0040480Y0050745D01*
X0040531Y0050820D01*
X0040561Y0050905D01*
X0040571Y0051000D01*
Y0049000D01*
X0040561Y0049095D01*
X0040531Y0049180D01*
X0040480Y0049255D01*
X0040409Y0049320D01*
X0040318Y0049375D01*
X0040207Y0049420D01*
X0040075Y0049455D01*
X0039924Y0049480D01*
X0039751Y0049495D01*
X0039559Y0049500D01*
Y0050500D01*
D02*
G37*
D14*
X0024000Y0030000D02*
Y0040000D01*
Y0020000D02*
Y0030000D01*
X0007000Y0020000D02*
X0024000D01*
X0017000Y0050000D02*
X0043500D01*
X0007000Y0040000D02*
X0017000Y0050000D01*
X0033000Y0040000D02*
X0043500D01*
X0033000Y0030000D02*
X0043500D01*
X0033000Y0020000D02*
X0043500D01*
D23*
Y0050000D02*
D03*
D24*
Y0040000D02*
D03*
Y0030000D02*
D03*
Y0020000D02*
D03*
Y0010000D02*
D03*
D25*
X0007000Y0040000D02*
D03*
Y0030000D02*
D03*
D26*
Y0020000D02*
D03*
D27*
X0024000Y0040000D02*
D03*
Y0020000D02*
D03*
Y0030000D02*
D03*
X0033000Y0020000D02*
D03*
Y0030000D02*
D03*
Y0040000D02*
D03*
M02*
